<?xml version="1.0" encoding="iso-8859-1"?>
<!-- Generator: Adobe Illustrator 16.0.0, SVG Export Plug-In . SVG Version: 6.00 Build 0)  -->
<!DOCTYPE svg PUBLIC "-//W3C//DTD SVG 1.1//EN" "http://www.w3.org/Graphics/SVG/1.1/DTD/svg11.dtd">
<svg version="1.1" id="Capa_1" xmlns="http://www.w3.org/2000/svg" xmlns:xlink="http://www.w3.org/1999/xlink" x="0px" y="0px"
	 width="97.75px" height="97.75px" viewBox="0 0 97.75 97.75" style="enable-background:new 0 0 97.75 97.75;" xml:space="preserve"
	>
<g>
	<g>
		<path d="M44.477,31.206c0.356-0.975,1.023-3.428,0.975-4.54c-0.023-0.512-0.067-1.079-0.63-1.277
			c-0.628-0.22-0.998,0.277-1.313,0.703c-0.529,0.72-0.835,1.554-1.139,2.388c-1.346,3.707-2.426,11.985-2.426,11.985
			s0.453-0.725,0.563-0.927C41.965,36.825,43.415,34.106,44.477,31.206z"/>
		<path d="M50.055,36.399c-0.509-0.076-0.814,0.5-0.982,0.893c-0.679,1.58-0.899,5.12-0.899,5.12s2.304-3.063,2.446-4.903
			C50.65,37.087,50.657,36.49,50.055,36.399z"/>
		<g>
			<path d="M37.323,44.609c-0.458-0.066-0.733,0.443-0.885,0.791c-0.61,1.4-0.808,4.54-0.808,4.54s2.073-2.715,2.2-4.347
				C37.859,45.219,37.866,44.691,37.323,44.609z"/>
			<path d="M26.767,62.773c0.085,0.467,0.301,1.022,0.858,0.963c0.59-0.064,0.579-0.666,0.571-1.139
				c-0.029-1.906-0.706-3.64-1.528-5.572C26.55,59.102,26.436,60.943,26.767,62.773z"/>
			<path d="M32.115,40.008c0.32-0.863,0.92-3.037,0.876-4.023c-0.021-0.453-0.061-0.957-0.568-1.131
				c-0.563-0.197-0.923,0.219-1.18,0.621c-0.274,0.432-0.634,1.484-0.833,2.115c-1.055,3.34-2.374,10.623-2.374,10.623
				s0.409-0.643,0.507-0.822C29.855,44.988,31.161,42.578,32.115,40.008z"/>
			<path d="M48.875,0C21.882,0,0,21.883,0,48.875S21.882,97.75,48.875,97.75c26.992,0,48.875-21.883,48.875-48.875
				S75.867,0,48.875,0z M58.715,56.613L58.711,48c-0.012-1.244-0.752-2.271-1.87-2.689c-1.151-0.432-2.169-0.168-3.044,0.652
				c-0.605,0.566-0.844,1.291-0.837,2.125l-0.017,8.525h-2.004l-0.021-8.299c-0.029-2.293-1.922-3.738-3.899-3.025
				c-1.154,0.418-1.903,1.475-1.909,2.758v8.566h-2.087V51.65c-0.744,1.379-2.812,2.994-2.812,2.994
				c-0.681,0.453-1.485,0.832-2.437,1.024c-1.972,0.226-3.125-0.576-4.134-2.813c-1.413,1.242-2.933,2.941-5.836,2.605
				c-0.041-0.037,1.73,3.816,1.992,5.844c0.205,1.594-0.142,3.514-1.324,4.027c-0.24,0.178-1.864,0.346-2.426-2.07
				c-0.468-2.438-0.255-4.879-0.059-7.32c0.042-0.508,0.169-1.543,0.226-2.098c-1.876,2.656-5.215,3.012-5.561-1.688
				c-0.006-0.09-0.055-0.219-0.183-0.041c-0.196,0.35-0.33,0.652-0.519,0.924c-0.472,0.676-1.369,1.945-2.146,2.221
				c-1.977,0.705-3.549-0.471-3.546-3.012c-0.184,0.258-0.659,0.873-0.884,1.084c-1.479,1.385-3.207,2.246-5.272,2.377
				c-1.451,0.092-2.532-0.52-3.254-1.734c-1.537-2.322-0.476-5.979-0.306-6.438c0.456-1.225,1.069-2.344,2.052-3.242
				c0.698-0.635,1.504-1.076,2.46-1.199c1.081-0.141,1.944,0.064,2.497,1.057c0.486,0.871,0.293,2.553-0.349,3.305
				c0,0-0.449,0.623-0.962,0.438c-0.494-0.178-0.159-0.639-0.026-0.914c0.23-0.586,0.854-1.711-0.135-2.365
				c-0.354-0.219-0.74-0.127-1.096,0.049c-2.139,1.059-3.62,6.223-2.358,8.211c0.599,0.941,1.734,1.389,3.03,1.049
				c2.32-0.611,4.038-1.994,4.928-4.213c0.916-2.287,2.312-4.174,4.373-5.57c0.831-0.564,1.734-0.924,2.767-0.885
				c0.54,0.02,1.035,0.264,1.057,0.783c0.015,0.32-0.453,0.516-0.774,0.615c-0.909,0.279-4.569,2.713-5.75,6.225
				c-0.38,1.131-0.207,2.076,0.412,2.299c0.988,0.355,1.538-0.348,2.07-0.975c1.223-1.434,2.051-3.09,2.726-4.828
				c0.092-0.234,0.175-0.471,0.261-0.709c0.23-0.635,0.721-0.789,1.301-0.576c0.629,0.229,0.355,0.725,0.199,1.107
				c-0.75,1.842-1.034,3.746-0.819,5.719c0.053,0.502,0.214,1.189,0.791,1.406c1.28,0.203,3.12-2.686,3.12-2.686
				s0.2-1.611,0.197-1.955l0.832-10.418c0.529-5.654,3.75-7.893,6.039-6.572c1.851,1.277,1.463,3.252,1.135,4.889
				c-0.636,3.17-2.579,5.988-4.058,8.838c-0.826,1.588-1.54,3.141-2.415,4.705c-0.471,0.844-0.356,2.043,0.307,2.592
				c0.772,0.639,1.53,0.393,2.278-0.092c0.857-0.553,2.664-2.166,2.664-2.166s-0.023-0.41-0.012-0.82
				c0.059-2.031,0.315-3.994,1.412-5.768c0.371-0.6,0.953-1.193,1.606-1.514c1.477-0.727,2.794,0.074,2.808,1.695
				c0.015,1.711-0.797,3.142-1.737,4.503c-0.268,0.389-0.587,0.743-0.895,1.104c-0.301,0.352-0.761,0.87-0.761,0.87
				s0.17,1.257,0.666,1.82c0.64,0.73,1.358,0.896,2.476,0.365c0.504-0.24,0.949-0.545,1.354-0.893c0,0,1.958-1.894,2.811-3.879
				v-5.902h2.172l-0.007,0.938c2.311-1.279,4.495-1.201,6.409,0.682c0.147,0.146,0.319,0.32,0.319,0.32s0.229-0.26,0.351-0.373
				c1.639-1.586,3.545-2.012,5.623-1.061c2.092,0.957,2.918,2.725,2.892,4.975l0.002,8.09h-2.069V56.613z M68.373,56.541
				c-3.729-0.012-6.814-3.141-6.748-6.838c0.066-3.76,3.113-6.725,6.893-6.713c3.678,0.016,6.724,3.066,6.737,6.758
				C75.27,53.518,72.191,56.557,68.373,56.541z M91.652,47.885c-0.01-1.244-0.752-2.27-1.869-2.689
				c-1.15-0.432-2.17-0.168-3.045,0.654c-0.605,0.566-0.842,1.291-0.836,2.123L85.885,56.5h-2.004l-0.021-8.301
				c-0.028-2.291-1.924-3.738-3.899-3.023c-1.153,0.418-1.903,1.473-1.909,2.758L78.032,56.5h-2.067l-0.002-13.57h2.174
				l-0.008,0.936c2.311-1.277,4.493-1.199,6.406,0.682c0.15,0.148,0.32,0.32,0.32,0.32s0.231-0.258,0.352-0.373
				c1.639-1.584,3.545-2.012,5.624-1.061c2.091,0.957,2.917,2.727,2.892,4.975v8.092h-2.064L91.652,47.885z"/>
			<path d="M68.497,45.049c-2.601-0.025-4.788,2.111-4.81,4.691c-0.02,2.598,2.115,4.721,4.752,4.721
				c2.647,0,4.758-2.092,4.75-4.711C73.182,47.207,71.051,45.07,68.497,45.049z"/>
		</g>
	</g>
</g>
<g>
</g>
<g>
</g>
<g>
</g>
<g>
</g>
<g>
</g>
<g>
</g>
<g>
</g>
<g>
</g>
<g>
</g>
<g>
</g>
<g>
</g>
<g>
</g>
<g>
</g>
<g>
</g>
<g>
</g>
</svg>
