<?xml version="1.0" encoding="iso-8859-1"?>
<!-- Generator: Adobe Illustrator 18.1.1, SVG Export Plug-In . SVG Version: 6.00 Build 0)  -->
<svg version="1.1" id="Capa_1" xmlns="http://www.w3.org/2000/svg" xmlns:xlink="http://www.w3.org/1999/xlink" x="0px" y="0px"
	 viewBox="0 0 473.197 473.197" style="enable-background:new 0 0 473.197 473.197;" xml:space="preserve">
<g>
	<g>
		<g>
			<path style="fill:#a7b2c8;" d="M236.607,0C106.135,0,0,106.135,0,236.598C0,367.07,106.135,473.197,236.607,473.197
				c130.455,0,236.59-106.135,236.59-236.598C473.197,106.135,367.07,0,236.607,0z M237.777,67.012
				c56.607,0,102.648,51.633,102.648,115.084c0,4.17-0.187,8.364-0.585,12.445c-3.65,38.123-23.971,71.572-54.364,89.463
				c-0.862,0.52-1.87,0.805-2.878,0.805c-1.423,0-2.796-0.537-3.845-1.52c-1.845-1.683-2.365-4.349-1.26-6.617
				c17.525-36.375,0.154-78.075-0.049-78.473l-15.851-39.48c-20.167,24.443-52.559,29.718-62.891,30.807
				c-24.524,35.766-12.185,67.5,2.495,87.846c1.105,0.902,1.821,2.479,1.821,4.137c0,3.276-2.333,5.666-5.544,5.666l-0.252-0.016
				c-0.951,0-1.861-0.211-2.658-0.634c-36.123-18.785-59.469-59.769-59.469-104.42C135.105,118.645,181.153,67.012,237.777,67.012z
				 M236.607,463.418c-54.169,0-106.639-19.533-147.818-55.006c4.812-25.963,11.551-45.496,19.931-57.973
				c1.162-1.455,7.584-8.95,20.484-13.867c11.307-3.479,39.302-12.77,54.64-23.874c0.699-0.415,1.406-1.162,1.967-1.748
				c0.788-0.845,0.854-1.553,0.919-2.081c0.041-0.536,0.098-1.04,1.349-2.211l1.512-1.398l1.471,1.414
				c13.908,13.087,32.823,17.745,45.878,17.745c17.509,0,34.896-5.974,46.495-15.981l1.122-0.951l2.943,1.439
				c0.845,0.78,1.447,1.439,1.975,2.016c1.032,1.105,1.853,1.983,3.17,2.617l3.699,2.365c2.617,1.553,5.365,3.048,8.429,4.552
				c3.211,1.406,5.918,2.455,8.746,3.406c1.431,0.48,14.363,4.698,29.312,11.624l2.731,0.853
				c14.664,5.592,20.866,13.575,20.866,13.575c8.364,12.42,15.07,31.506,19.923,56.811
				C344.887,443.292,291.726,463.418,236.607,463.418z"/>
		</g>
	</g>
</g>
<g>
</g>
<g>
</g>
<g>
</g>
<g>
</g>
<g>
</g>
<g>
</g>
<g>
</g>
<g>
</g>
<g>
</g>
<g>
</g>
<g>
</g>
<g>
</g>
<g>
</g>
<g>
</g>
<g>
</g>
</svg>
